# xmcd CD database file generated by OrangeCD 5.2
#
# Track frame offsets:
#	150
#	21250
#	51197
#	76067
#	112558
#	133103
#	157850
#
# Disc length: 2435 seconds
#
# Revision: 0
# Processed by: cddbd v1.5.1PL0 Copyright (c) Steve Scherf et al.
# Submitted via: OrangeCD 5.2
#
DISCID=45098107
DTITLE=Osborne, Joan - Elecrtic Factory Philadelphia, PA 10/28/1995
DYEAR=1995
DGENRE=Blues
TTITLE0=Right Hand Man
TTITLE1=Pensacola
TTITLE2=St Teresa
TTITLE3=Dracula Moon
TTITLE4=Century
TTITLE5=One of Us
TTITLE6=Ladder
EXTD=
EXTT0=
EXTT1=
EXTT2=
EXTT3=
EXTT4=
EXTT5=
EXTT6=
PLAYORDER=
